<svg width="231" height="102" viewBox="0 0 231 102" fill="none" xmlns="http://www.w3.org/2000/svg">
<rect width="75.5172" height="60" transform="translate(62.4309 100.247) rotate(-144.937)" fill="#FACC02"/>
<path d="M31.9489 70.3721C43.0569 71.737 52.1706 65.4371 54.8715 65.6147C61.2197 66.0384 69.5492 71.4033 79.4939 67.9144C88.3599 64.8022 88.7679 56.9394 87.0472 51.9865C85.3265 47.0335 77.0036 44.0727 77.0036 44.0727C77.0036 44.0727 61.8801 41.3328 61.5193 41.8469C61.1584 42.3611 46.8387 46.0552 41.1165 46.4545C35.3943 46.8538 17.253 42.3852 17.253 42.3852C17.253 42.3852 8.55392 49.3369 8.21665 51.1218C7.81969 53.2484 14.0308 68.1735 31.9489 70.3721Z" fill="#F3AE38"/>
<path d="M46.3298 50.0046C55.9415 48.0686 59.7438 43.5444 69.179 44.5198C78.6142 45.4952 87.0395 51.9868 87.0395 51.9868C87.0395 51.9868 85.1822 44.6816 75.129 40.0884C63.8955 34.9589 57.2285 38.0395 50.1751 40.849C47.0963 42.0727 46.0995 42.8563 44.991 42.9259C43.8778 42.9921 33.3303 39.6784 28.246 39.0765C23.1616 38.4746 17.033 39.6996 13.2811 43.32C8.88023 47.5673 8.22343 51.1323 8.22343 51.1323C8.22343 51.1323 13.0945 44.9415 20.7542 44.6879C29.3933 44.3945 40.3752 51.1972 46.3298 50.0046Z" fill="#D97A08"/>
<path d="M76.5755 65.8489C78.3601 65.3089 79.1137 64.4405 78.5599 63.4734C77.9376 62.378 76.1426 62.4297 75.0003 62.8249C73.858 63.2201 72.6784 64.0587 73.1694 64.9817C73.7172 66.019 74.9485 66.3391 76.5755 65.8489ZM68.9275 64.9767C68.8827 63.5308 67.0674 62.9439 65.2584 62.728C63.4494 62.5121 62.0123 62.8035 62.0546 63.8525C62.0995 64.8977 64.0343 65.6429 65.5157 65.8121C66.995 65.9741 68.9686 66.3457 68.9275 64.9767ZM50.4952 62.5146C49.8323 61.2819 48.1871 61.4386 46.5298 61.9821C44.8753 62.5217 43.462 63.3853 44.146 64.5468C44.7861 65.6375 46.1617 65.7725 48.2281 64.9951C50.58 64.1088 51.0254 63.5051 50.4952 62.5146Z" fill="#F7C875"/>
<path d="M83.4309 54.2017C83.6562 53.2029 82.3177 52.4296 81.3148 52.0407C79.672 51.4032 78.6567 51.7099 78.4341 52.407C78.2115 53.1041 79.2761 54.1548 80.7393 54.5861C81.6779 54.8611 83.2063 55.1893 83.4309 54.2017ZM75.7418 51.3135C75.5708 50.1913 74.3701 49.5605 71.9631 49.4059C70.0943 49.2855 68.8209 50.001 69.0099 50.964C69.1989 51.9271 70.1584 51.9362 72.1529 52.0932C74.0028 52.2405 75.8853 52.2388 75.7418 51.3135ZM71.1598 54.987C71.086 53.9215 69.6059 53.2779 67.6903 53.1933C65.9069 53.1156 64.8515 53.5718 65.1525 54.7451C65.4385 55.8679 67.3037 55.8598 68.2561 55.9098C69.418 55.9693 71.2484 56.2575 71.1598 54.987ZM64.1631 51.5539C65.9634 51.4946 67.2753 51.2069 66.7988 49.9448C66.3224 48.6827 64.241 48.7624 63.3846 48.7913C62.5256 48.824 60.5665 49.0068 60.8818 50.2932C61.1949 51.5724 63.3067 51.5828 64.1631 51.5539ZM55.6724 56.0519C56.9831 55.8379 58.797 55.7079 58.672 54.7153C58.5389 53.6827 56.963 52.9088 54.8435 53.2997C53.5086 53.5482 52.4545 54.4749 52.8026 55.4065C53.1459 56.3346 54.5181 56.2382 55.6724 56.0519ZM43.9218 55.0378C44.0577 53.8275 42.0401 53.0872 40.3752 52.7892C38.7077 52.495 37.1474 52.5511 37.1076 53.5425C37.0695 54.4492 38.5017 55.3971 40.4646 55.7325C42.4298 56.0751 43.8072 56.0741 43.9218 55.0378ZM31.4721 51.0762C31.4535 50.0038 30.0669 49.3914 28.1246 49.2422C26.2172 49.0947 25.0755 49.4274 25.202 50.5412C25.3332 51.6584 26.8507 51.8071 28.5947 51.9717C30.2862 52.1395 31.495 52.1117 31.4721 51.0762ZM23.5343 49.3536C23.2052 48.3437 21.7917 48.0675 20.0943 48.2163C18.3142 48.3701 17.5139 48.9251 17.7267 49.7617C17.9348 50.5949 19.1161 50.9658 21.1068 50.7996C22.9519 50.6457 23.8181 50.2228 23.5343 49.3536ZM18.9504 55.4023C20.6335 55.0889 22.2528 55.0514 21.7828 53.7595C21.4315 52.7913 19.6443 52.4418 18.0051 52.7746C16.5326 53.0755 15.3681 54.211 15.9662 55.0431C16.5669 55.8713 17.3935 55.6898 18.9504 55.4023ZM14.0404 52.1796C15.1603 51.385 16.4025 51.2891 16.0182 50.1832C15.5692 48.8716 13.683 48.8478 12.1223 50.1062C10.6864 51.2689 10.557 52.2031 11.4789 52.81C12.3981 53.4208 13.1281 52.8222 14.0404 52.1796Z" fill="#D97A08"/>
<path d="M114.651 24.082H103.057V28.842H112.305V33.364H103.057V42H97.2089V19.56H114.651V24.082ZM116.375 42V25H121.475L121.713 28.672C122.143 27.4027 122.778 26.4167 123.617 25.714C124.478 25.0113 125.566 24.66 126.881 24.66C127.311 24.66 127.674 24.694 127.969 24.762C128.286 24.83 128.535 24.9207 128.717 25.034L128.139 29.794C127.912 29.7033 127.617 29.6353 127.255 29.59C126.915 29.522 126.495 29.488 125.997 29.488C125.317 29.488 124.682 29.6353 124.093 29.93C123.503 30.2247 123.027 30.6667 122.665 31.256C122.325 31.8227 122.155 32.548 122.155 33.432V42H116.375ZM139.624 31.222C139.624 30.4287 139.397 29.8053 138.944 29.352C138.513 28.876 137.924 28.638 137.176 28.638C136.428 28.638 135.782 28.8307 135.238 29.216C134.717 29.5787 134.354 30.236 134.15 31.188L129.254 30.032C129.571 28.4 130.41 27.0967 131.77 26.122C133.13 25.1473 135.045 24.66 137.516 24.66C139.171 24.66 140.576 24.9093 141.732 25.408C142.911 25.884 143.806 26.6093 144.418 27.584C145.053 28.536 145.37 29.7147 145.37 31.12V37.342C145.37 38.226 145.767 38.668 146.56 38.668C146.968 38.668 147.297 38.6227 147.546 38.532L147.206 41.83C146.526 42.1473 145.699 42.306 144.724 42.306C143.84 42.306 143.058 42.17 142.378 41.898C141.698 41.6033 141.165 41.1727 140.78 40.606C140.395 40.0167 140.202 39.28 140.202 38.396V38.192L140.848 37.954C140.848 38.9287 140.553 39.7447 139.964 40.402C139.397 41.0593 138.649 41.5467 137.72 41.864C136.813 42.1813 135.861 42.34 134.864 42.34C133.708 42.34 132.699 42.1587 131.838 41.796C130.977 41.4333 130.308 40.912 129.832 40.232C129.379 39.5293 129.152 38.668 129.152 37.648C129.152 36.424 129.515 35.4153 130.24 34.622C130.988 33.806 132.155 33.2393 133.742 32.922L140.168 31.596L140.134 34.656L136.87 35.336C136.19 35.472 135.68 35.676 135.34 35.948C135.023 36.1973 134.864 36.5827 134.864 37.104C134.864 37.6027 135.045 37.9767 135.408 38.226C135.771 38.4753 136.201 38.6 136.7 38.6C137.085 38.6 137.448 38.5433 137.788 38.43C138.151 38.3167 138.468 38.1467 138.74 37.92C139.012 37.6707 139.227 37.3647 139.386 37.002C139.545 36.6393 139.624 36.2087 139.624 35.71V31.222ZM154.86 17.792V36.22C154.86 36.968 154.984 37.5007 155.234 37.818C155.483 38.1353 155.902 38.294 156.492 38.294C156.832 38.294 157.115 38.2713 157.342 38.226C157.568 38.1807 157.84 38.1127 158.158 38.022L157.784 41.49C157.376 41.7393 156.843 41.9433 156.186 42.102C155.528 42.2607 154.882 42.34 154.248 42.34C152.434 42.34 151.12 41.9207 150.304 41.082C149.488 40.2433 149.08 38.872 149.08 36.968V17.792H154.86ZM167.683 24.66C169.473 24.66 171.037 25.0113 172.375 25.714C173.735 26.394 174.789 27.4027 175.537 28.74C176.307 30.0547 176.693 31.6413 176.693 33.5C176.693 35.3587 176.307 36.9567 175.537 38.294C174.789 39.6087 173.735 40.6173 172.375 41.32C171.037 42 169.473 42.34 167.683 42.34C165.937 42.34 164.385 42 163.025 41.32C161.665 40.6173 160.599 39.6087 159.829 38.294C159.081 36.9567 158.707 35.3587 158.707 33.5C158.707 31.6413 159.081 30.0547 159.829 28.74C160.599 27.4027 161.665 26.394 163.025 25.714C164.385 25.0113 165.937 24.66 167.683 24.66ZM167.683 28.774C167.025 28.774 166.459 28.9327 165.983 29.25C165.507 29.5673 165.144 30.0773 164.895 30.78C164.645 31.4827 164.521 32.3893 164.521 33.5C164.521 34.6107 164.645 35.5173 164.895 36.22C165.144 36.9 165.507 37.41 165.983 37.75C166.459 38.0673 167.025 38.226 167.683 38.226C168.363 38.226 168.941 38.0673 169.417 37.75C169.893 37.41 170.255 36.9 170.505 36.22C170.754 35.5173 170.879 34.6107 170.879 33.5C170.879 32.3893 170.754 31.4827 170.505 30.78C170.255 30.0773 169.893 29.5673 169.417 29.25C168.941 28.9327 168.363 28.774 167.683 28.774ZM179.264 42V25H184.432L184.738 30.848L184.092 30.202C184.319 28.978 184.715 27.958 185.282 27.142C185.871 26.326 186.597 25.714 187.458 25.306C188.342 24.8753 189.328 24.66 190.416 24.66C191.595 24.66 192.615 24.8867 193.476 25.34C194.36 25.7933 195.051 26.462 195.55 27.346C196.049 28.23 196.298 29.3407 196.298 30.678V42H190.518V32.208C190.518 31.0293 190.291 30.2133 189.838 29.76C189.385 29.3067 188.807 29.08 188.104 29.08C187.56 29.08 187.05 29.216 186.574 29.488C186.098 29.7373 185.724 30.1453 185.452 30.712C185.18 31.2787 185.044 32.038 185.044 32.99V42H179.264Z" fill="#FACC02"/>
<path d="M105.492 61.56C107.328 61.56 108.892 61.8547 110.184 62.444C111.476 63.0333 112.462 63.8833 113.142 64.994C113.822 66.1047 114.162 67.4533 114.162 69.04C114.162 70.6267 113.822 71.9753 113.142 73.086C112.462 74.1967 111.476 75.0467 110.184 75.636C108.892 76.2253 107.328 76.52 105.492 76.52H101.038V84H95.1905V61.56H105.492ZM104.574 72.134C105.798 72.134 106.716 71.8847 107.328 71.386C107.963 70.8647 108.28 70.0827 108.28 69.04C108.28 67.9973 107.963 67.2267 107.328 66.728C106.716 66.2067 105.798 65.946 104.574 65.946H101.038V72.134H104.574ZM124.578 84.34C122.697 84.34 121.065 83.9887 119.682 83.286C118.322 82.5833 117.268 81.5747 116.52 80.26C115.772 78.9453 115.398 77.3587 115.398 75.5C115.398 73.6413 115.772 72.0547 116.52 70.74C117.268 69.4253 118.311 68.4167 119.648 67.714C121.008 67.0113 122.561 66.66 124.306 66.66C126.097 66.66 127.615 67.0113 128.862 67.714C130.131 68.394 131.095 69.346 131.752 70.57C132.409 71.7713 132.738 73.154 132.738 74.718C132.738 75.126 132.727 75.534 132.704 75.942C132.681 76.35 132.647 76.69 132.602 76.962H119.138V73.868H130.052L127.298 74.922C127.298 73.562 127.049 72.5193 126.55 71.794C126.074 71.0687 125.326 70.706 124.306 70.706C123.581 70.706 122.957 70.876 122.436 71.216C121.937 71.556 121.552 72.0887 121.28 72.814C121.031 73.5393 120.906 74.4687 120.906 75.602C120.906 76.7127 121.053 77.6193 121.348 78.322C121.643 79.002 122.062 79.5007 122.606 79.818C123.15 80.1127 123.807 80.26 124.578 80.26C125.439 80.26 126.119 80.09 126.618 79.75C127.139 79.41 127.525 78.934 127.774 78.322L132.398 79.852C132.081 80.8267 131.525 81.654 130.732 82.334C129.961 82.9913 129.032 83.49 127.944 83.83C126.879 84.17 125.757 84.34 124.578 84.34ZM144.778 73.222C144.778 72.4287 144.551 71.8053 144.098 71.352C143.667 70.876 143.078 70.638 142.33 70.638C141.582 70.638 140.936 70.8307 140.392 71.216C139.87 71.5787 139.508 72.236 139.304 73.188L134.408 72.032C134.725 70.4 135.564 69.0967 136.924 68.122C138.284 67.1473 140.199 66.66 142.67 66.66C144.324 66.66 145.73 66.9093 146.886 67.408C148.064 67.884 148.96 68.6093 149.572 69.584C150.206 70.536 150.524 71.7147 150.524 73.12V79.342C150.524 80.226 150.92 80.668 151.714 80.668C152.122 80.668 152.45 80.6227 152.7 80.532L152.36 83.83C151.68 84.1473 150.852 84.306 149.878 84.306C148.994 84.306 148.212 84.17 147.532 83.898C146.852 83.6033 146.319 83.1727 145.934 82.606C145.548 82.0167 145.356 81.28 145.356 80.396V80.192L146.002 79.954C146.002 80.9287 145.707 81.7447 145.118 82.402C144.551 83.0593 143.803 83.5467 142.874 83.864C141.967 84.1813 141.015 84.34 140.018 84.34C138.862 84.34 137.853 84.1587 136.992 83.796C136.13 83.4333 135.462 82.912 134.986 82.232C134.532 81.5293 134.306 80.668 134.306 79.648C134.306 78.424 134.668 77.4153 135.394 76.622C136.142 75.806 137.309 75.2393 138.896 74.922L145.322 73.596L145.288 76.656L142.024 77.336C141.344 77.472 140.834 77.676 140.494 77.948C140.176 78.1973 140.018 78.5827 140.018 79.104C140.018 79.6027 140.199 79.9767 140.562 80.226C140.924 80.4753 141.355 80.6 141.854 80.6C142.239 80.6 142.602 80.5433 142.942 80.43C143.304 80.3167 143.622 80.1467 143.894 79.92C144.166 79.6707 144.381 79.3647 144.54 79.002C144.698 78.6393 144.778 78.2087 144.778 77.71V73.222ZM154.301 84V67H159.469L159.775 72.848L159.129 72.202C159.356 70.978 159.752 69.958 160.319 69.142C160.908 68.326 161.634 67.714 162.495 67.306C163.379 66.8753 164.365 66.66 165.453 66.66C166.632 66.66 167.652 66.8867 168.513 67.34C169.397 67.7933 170.088 68.462 170.587 69.346C171.086 70.23 171.335 71.3407 171.335 72.678V84H165.555V74.208C165.555 73.0293 165.328 72.2133 164.875 71.76C164.422 71.3067 163.844 71.08 163.141 71.08C162.597 71.08 162.087 71.216 161.611 71.488C161.135 71.7373 160.761 72.1453 160.489 72.712C160.217 73.2787 160.081 74.038 160.081 74.99V84H154.301ZM180.451 84.34C179.295 84.34 178.275 84.1473 177.391 83.762C176.53 83.354 175.85 82.708 175.351 81.824C174.852 80.94 174.603 79.784 174.603 78.356V67H180.383V76.996C180.383 78.084 180.598 78.8433 181.029 79.274C181.46 79.7047 182.072 79.92 182.865 79.92C183.273 79.92 183.658 79.852 184.021 79.716C184.384 79.5573 184.701 79.3307 184.973 79.036C185.245 78.7187 185.449 78.322 185.585 77.846C185.744 77.3473 185.823 76.7693 185.823 76.112V67H191.603V84H186.435L186.265 80.804C185.721 82.0053 184.962 82.9007 183.987 83.49C183.012 84.0567 181.834 84.34 180.451 84.34ZM202.182 61.594V77.948C202.182 78.764 202.374 79.3533 202.76 79.716C203.168 80.056 203.723 80.226 204.426 80.226C204.97 80.226 205.434 80.1693 205.82 80.056C206.228 79.92 206.59 79.7273 206.908 79.478L207.52 83.048C206.953 83.456 206.239 83.7733 205.378 84C204.516 84.2267 203.632 84.34 202.726 84.34C201.434 84.34 200.312 84.1587 199.36 83.796C198.43 83.4333 197.705 82.8553 197.184 82.062C196.685 81.2687 196.424 80.2147 196.402 78.9V63.192L202.182 61.594ZM207.248 67V71.114H193.478V67H207.248ZM216.378 84.34C214.678 84.34 213.091 84.068 211.618 83.524C210.167 82.9573 208.966 82.1527 208.014 81.11L210.734 77.914C211.3 78.6393 212.048 79.2513 212.978 79.75C213.93 80.226 214.984 80.464 216.14 80.464C216.842 80.464 217.42 80.362 217.874 80.158C218.327 79.954 218.554 79.6367 218.554 79.206C218.554 78.8887 218.44 78.6393 218.214 78.458C217.987 78.254 217.534 78.084 216.854 77.948L214.474 77.472C212.343 77.0413 210.824 76.4067 209.918 75.568C209.034 74.7067 208.592 73.5847 208.592 72.202C208.592 71.2727 208.875 70.3887 209.442 69.55C210.008 68.6887 210.881 67.9973 212.06 67.476C213.238 66.932 214.746 66.66 216.582 66.66C218.304 66.66 219.823 66.9093 221.138 67.408C222.452 67.9067 223.495 68.632 224.266 69.584L221.512 72.712C220.968 72.032 220.265 71.4993 219.404 71.114C218.542 70.7287 217.681 70.536 216.82 70.536C216.276 70.536 215.811 70.5927 215.426 70.706C215.063 70.7967 214.791 70.9327 214.61 71.114C214.428 71.2953 214.338 71.522 214.338 71.794C214.338 72.0887 214.474 72.3493 214.746 72.576C215.04 72.78 215.573 72.9613 216.344 73.12L219.438 73.732C221.183 74.0493 222.441 74.6273 223.212 75.466C223.982 76.3047 224.368 77.3133 224.368 78.492C224.368 79.6027 224.073 80.6 223.484 81.484C222.894 82.368 222.01 83.0707 220.832 83.592C219.653 84.0907 218.168 84.34 216.378 84.34Z" fill="#FACC02"/>
</svg>
