<svg width="1782" height="1138" viewBox="0 0 1782 1138" fill="none" xmlns="http://www.w3.org/2000/svg">
<g clip-path="url(#clip0_7_9)">
<rect width="1782" height="1138" fill="white"/>
<path d="M872.397 294.107V207.756H1249.92V294.107H872.397Z" fill="#DC2626" stroke="black"/>
<path d="M872.397 88.916V2.56488H1249.92V88.916H872.397Z" fill="#DC2626" stroke="black"/>
<path d="M872.397 548.885H777.548L777.548 0H872.397L872.397 548.885Z" fill="#DC2626" stroke="black"/>
<path d="M469.625 766.271C463.083 766.271 456.438 765.771 449.688 764.771L466.688 756.958L472.438 692.396L453.125 683.708C457.167 682.792 461.271 682.083 465.438 681.583C469.604 681.042 473.438 680.646 476.938 680.396C480.979 680.104 484.917 679.938 488.75 679.896C491.583 679.896 494.5 680.229 497.5 680.896C500.542 681.563 503.5 682.625 506.375 684.083C509.25 685.5 511.958 687.333 514.5 689.583C517.042 691.833 519.25 694.521 521.125 697.646C523.042 700.771 524.562 704.375 525.688 708.458C526.812 712.5 527.375 717.063 527.375 722.146C527.375 727.771 526.562 732.771 524.938 737.146C523.312 741.521 521.083 745.333 518.25 748.583C515.458 751.833 512.188 754.604 508.438 756.896C504.688 759.146 500.667 760.958 496.375 762.333C492.083 763.708 487.646 764.708 483.062 765.333C478.521 765.958 474.042 766.271 469.625 766.271ZM512.812 719.708C512.812 717.583 512.646 715.313 512.312 712.896C512.021 710.479 511.5 708.083 510.75 705.708C510 703.333 509 701.063 507.75 698.896C506.5 696.688 504.938 694.75 503.062 693.083C501.229 691.417 499.042 690.083 496.5 689.083C493.958 688.083 491.021 687.583 487.688 687.583C485.938 687.583 484.104 687.708 482.188 687.958V757.958C487.854 757.167 492.625 755.688 496.5 753.521C500.417 751.354 503.583 748.625 506 745.333C508.417 742 510.146 738.188 511.188 733.896C512.271 729.563 512.812 724.833 512.812 719.708ZM618.188 721.583C618.188 728.542 617.104 734.771 614.938 740.271C612.812 745.729 609.896 750.354 606.188 754.146C602.479 757.896 598.146 760.771 593.188 762.771C588.271 764.771 583.021 765.771 577.438 765.771C573.771 765.771 570.167 765.333 566.625 764.458C563.125 763.583 559.792 762.313 556.625 760.646C553.5 758.979 550.604 756.958 547.938 754.583C545.271 752.167 542.979 749.417 541.062 746.333C539.146 743.208 537.646 739.792 536.562 736.083C535.479 732.333 534.938 728.313 534.938 724.021C534.938 717.354 536.021 711.208 538.188 705.583C540.396 699.917 543.438 695.021 547.312 690.896C551.229 686.771 555.833 683.542 561.125 681.208C566.458 678.875 572.25 677.708 578.5 677.708C583.75 677.708 588.771 678.688 593.562 680.646C598.354 682.563 602.562 685.396 606.188 689.146C609.854 692.896 612.771 697.5 614.938 702.958C617.104 708.375 618.188 714.583 618.188 721.583ZM601.375 722.771C601.375 717.604 600.5 713.083 598.75 709.208C597 705.292 594.729 702.021 591.938 699.396C589.146 696.771 585.979 694.813 582.438 693.521C578.896 692.188 575.354 691.521 571.812 691.521C567.729 691.521 563.938 692.271 560.438 693.771C556.938 695.271 553.896 697.438 551.312 700.271C548.729 703.063 546.688 706.479 545.188 710.521C543.729 714.521 543 719.021 543 724.021C543 728.771 543.729 733 545.188 736.708C546.646 740.417 548.646 743.563 551.188 746.146C553.729 748.688 556.688 750.646 560.062 752.021C563.479 753.354 567.104 754.021 570.938 754.021C574.812 754.021 578.562 753.354 582.188 752.021C585.854 750.646 589.104 748.646 591.938 746.021C594.812 743.354 597.104 740.083 598.812 736.208C600.521 732.292 601.375 727.813 601.375 722.771ZM718.375 682.208L700.625 687.333L691.5 767.021L651.062 704.708L644.688 753.083L662.062 762.333L621 765.396L637.375 753.083L638.562 690.521L619.875 683.958L660.688 677.208L685 740.021L692.438 688.958L678.75 676.021L718.375 682.208ZM728.625 766.271C722.083 766.271 715.438 765.771 708.688 764.771L725.688 756.958L731.438 692.396L712.125 683.708C716.167 682.792 720.271 682.083 724.438 681.583C728.604 681.042 732.438 680.646 735.938 680.396C739.979 680.104 743.917 679.938 747.75 679.896C750.583 679.896 753.5 680.229 756.5 680.896C759.542 681.563 762.5 682.625 765.375 684.083C768.25 685.5 770.958 687.333 773.5 689.583C776.042 691.833 778.25 694.521 780.125 697.646C782.042 700.771 783.562 704.375 784.688 708.458C785.812 712.5 786.375 717.063 786.375 722.146C786.375 727.771 785.562 732.771 783.938 737.146C782.312 741.521 780.083 745.333 777.25 748.583C774.458 751.833 771.188 754.604 767.438 756.896C763.688 759.146 759.667 760.958 755.375 762.333C751.083 763.708 746.646 764.708 742.062 765.333C737.521 765.958 733.042 766.271 728.625 766.271ZM771.812 719.708C771.812 717.583 771.646 715.313 771.312 712.896C771.021 710.479 770.5 708.083 769.75 705.708C769 703.333 768 701.063 766.75 698.896C765.5 696.688 763.938 694.75 762.062 693.083C760.229 691.417 758.042 690.083 755.5 689.083C752.958 688.083 750.021 687.583 746.688 687.583C744.938 687.583 743.104 687.708 741.188 687.958V757.958C746.854 757.167 751.625 755.688 755.5 753.521C759.417 751.354 762.583 748.625 765 745.333C767.417 742 769.146 738.188 770.188 733.896C771.271 729.563 771.812 724.833 771.812 719.708ZM858.125 763.458L787.688 766.271L803.312 750.271L807.688 692.708L788.875 683.458L855.812 678.708L856.938 708.021L845.312 687.208L816.75 691.771L817.688 721.333L824.188 720.458L837.125 703.333L838 742.708L826.75 726.583L817.812 727.896L818.562 753.708L846.562 756.271L857.062 730.083L858.125 763.458ZM948.625 687.583L933.75 692.958L915.188 755.896L925.812 763.208L884.75 766.646L895.875 753.708L871.688 693.208L860.062 687.583L897.938 677.583L888.812 686.396L904.562 752.458L924.938 692.708L915.312 678.708L948.625 687.583ZM1013.5 763.458L943.062 766.271L958.688 750.271L963.062 692.708L944.25 683.458L1011.19 678.708L1012.31 708.021L1000.69 687.208L972.125 691.771L973.062 721.333L979.562 720.458L992.5 703.333L993.375 742.708L982.125 726.583L973.188 727.896L973.938 753.708L1001.94 756.271L1012.44 730.083L1013.5 763.458ZM1088.88 762.958L1017.06 765.771L1032.94 751.958L1036.69 691.521L1019.5 682.583L1061.12 679.896L1047.94 688.833L1048.69 752.208L1077.62 755.771L1088.88 734.646V762.958ZM1178.56 721.583C1178.56 728.542 1177.48 734.771 1175.31 740.271C1173.19 745.729 1170.27 750.354 1166.56 754.146C1162.85 757.896 1158.52 760.771 1153.56 762.771C1148.65 764.771 1143.4 765.771 1137.81 765.771C1134.15 765.771 1130.54 765.333 1127 764.458C1123.5 763.583 1120.17 762.313 1117 760.646C1113.88 758.979 1110.98 756.958 1108.31 754.583C1105.65 752.167 1103.35 749.417 1101.44 746.333C1099.52 743.208 1098.02 739.792 1096.94 736.083C1095.85 732.333 1095.31 728.313 1095.31 724.021C1095.31 717.354 1096.4 711.208 1098.56 705.583C1100.77 699.917 1103.81 695.021 1107.69 690.896C1111.6 686.771 1116.21 683.542 1121.5 681.208C1126.83 678.875 1132.62 677.708 1138.88 677.708C1144.12 677.708 1149.15 678.688 1153.94 680.646C1158.73 682.563 1162.94 685.396 1166.56 689.146C1170.23 692.896 1173.15 697.5 1175.31 702.958C1177.48 708.375 1178.56 714.583 1178.56 721.583ZM1161.75 722.771C1161.75 717.604 1160.88 713.083 1159.12 709.208C1157.38 705.292 1155.1 702.021 1152.31 699.396C1149.52 696.771 1146.35 694.813 1142.81 693.521C1139.27 692.188 1135.73 691.521 1132.19 691.521C1128.1 691.521 1124.31 692.271 1120.81 693.771C1117.31 695.271 1114.27 697.438 1111.69 700.271C1109.1 703.063 1107.06 706.479 1105.56 710.521C1104.1 714.521 1103.38 719.021 1103.38 724.021C1103.38 728.771 1104.1 733 1105.56 736.708C1107.02 740.417 1109.02 743.563 1111.56 746.146C1114.1 748.688 1117.06 750.646 1120.44 752.021C1123.85 753.354 1127.48 754.021 1131.31 754.021C1135.19 754.021 1138.94 753.354 1142.56 752.021C1146.23 750.646 1149.48 748.646 1152.31 746.021C1155.19 743.354 1157.48 740.083 1159.19 736.208C1160.9 732.292 1161.75 727.813 1161.75 722.771ZM1210.31 739.021V757.083L1226.06 764.896H1179.56L1195.06 755.646L1199.44 691.396L1180.75 680.021C1182.92 679.688 1185.12 679.417 1187.38 679.208C1189.67 679 1191.92 678.854 1194.12 678.771C1196.38 678.646 1198.54 678.563 1200.62 678.521C1202.75 678.479 1204.73 678.458 1206.56 678.458C1210.73 678.458 1214.88 678.604 1219 678.896C1223.12 679.188 1227.06 679.75 1230.81 680.583C1234.6 681.375 1238.1 682.479 1241.31 683.896C1244.56 685.313 1247.38 687.146 1249.75 689.396C1252.12 691.604 1253.98 694.292 1255.31 697.458C1256.69 700.625 1257.38 704.333 1257.38 708.583C1257.38 712.458 1256.75 715.896 1255.5 718.896C1254.29 721.896 1252.62 724.542 1250.5 726.833C1248.42 729.083 1245.96 730.979 1243.12 732.521C1240.29 734.063 1237.29 735.333 1234.12 736.333C1230.96 737.292 1227.71 737.979 1224.38 738.396C1221.04 738.813 1217.79 739.021 1214.62 739.021H1210.31ZM1210.31 686.771V732.771C1215.19 732.771 1219.31 732.292 1222.69 731.333C1226.06 730.375 1228.88 729.167 1231.12 727.708C1233.38 726.208 1235.12 724.563 1236.38 722.771C1237.67 720.938 1238.62 719.188 1239.25 717.521C1239.88 715.813 1240.25 714.292 1240.38 712.958C1240.54 711.583 1240.62 710.583 1240.62 709.958C1240.62 709.125 1240.54 707.979 1240.38 706.521C1240.25 705.021 1239.9 703.417 1239.31 701.708C1238.73 700 1237.85 698.271 1236.69 696.521C1235.52 694.729 1233.9 693.125 1231.81 691.708C1229.73 690.25 1227.12 689.063 1224 688.146C1220.92 687.229 1217.17 686.771 1212.75 686.771H1210.31ZM1326.75 763.458L1256.31 766.271L1271.94 750.271L1276.31 692.708L1257.5 683.458L1324.44 678.708L1325.56 708.021L1313.94 687.208L1285.38 691.771L1286.31 721.333L1292.81 720.458L1305.75 703.333L1306.62 742.708L1295.38 726.583L1286.44 727.896L1287.19 753.708L1315.19 756.271L1325.69 730.083L1326.75 763.458ZM1412.88 740.958C1411.75 746.667 1410.31 751.375 1408.56 755.083C1406.81 758.75 1405.04 761.646 1403.25 763.771C1401.46 765.896 1399.77 767.375 1398.19 768.208C1396.65 769.042 1395.48 769.458 1394.69 769.458C1393.44 769.458 1391.83 768.917 1389.88 767.833C1387.92 766.75 1385.75 765.354 1383.38 763.646C1381.04 761.938 1378.6 760.021 1376.06 757.896C1373.56 755.729 1371.15 753.583 1368.81 751.458C1366.48 749.333 1364.33 747.333 1362.38 745.458C1360.42 743.583 1358.83 742.042 1357.62 740.833L1358.12 756.271L1371.31 763.583L1331.62 766.396L1344.94 754.146L1347.25 691.271L1331 683.458C1339.12 683 1346.02 682.667 1351.69 682.458C1357.35 682.208 1362.04 682.042 1365.75 681.958C1369.46 681.875 1372.31 681.833 1374.31 681.833C1376.31 681.833 1377.73 681.833 1378.56 681.833C1380.35 681.833 1382.29 682 1384.38 682.333C1386.5 682.625 1388.6 683.146 1390.69 683.896C1392.77 684.604 1394.79 685.521 1396.75 686.646C1398.71 687.771 1400.44 689.146 1401.94 690.771C1403.44 692.396 1404.62 694.292 1405.5 696.458C1406.42 698.583 1406.88 701 1406.88 703.708C1406.88 704.333 1406.79 705.208 1406.62 706.333C1406.5 707.417 1406.21 708.688 1405.75 710.146C1405.29 711.563 1404.6 713.083 1403.69 714.708C1402.77 716.292 1401.52 717.896 1399.94 719.521C1398.4 721.104 1396.48 722.646 1394.19 724.146C1391.9 725.646 1389.12 726.979 1385.88 728.146C1382.67 729.313 1378.92 730.271 1374.62 731.021C1370.38 731.729 1365.5 732.125 1360 732.208C1362.71 734.25 1365.65 736.438 1368.81 738.771C1371.98 741.063 1375.19 743.188 1378.44 745.146C1381.69 747.063 1384.88 748.667 1388 749.958C1391.12 751.208 1394.04 751.833 1396.75 751.833C1398.04 751.833 1399.42 751.688 1400.88 751.396C1402.38 751.104 1403.83 750.563 1405.25 749.771C1406.71 748.938 1408.08 747.833 1409.38 746.458C1410.71 745.042 1411.88 743.208 1412.88 740.958ZM1388.81 706.646C1388.81 705.354 1388.71 704.063 1388.5 702.771C1388.29 701.479 1387.85 700.25 1387.19 699.083C1386.52 697.917 1385.56 696.813 1384.31 695.771C1383.06 694.729 1381.38 693.833 1379.25 693.083C1377.17 692.333 1374.58 691.75 1371.5 691.333C1368.42 690.875 1364.73 690.646 1360.44 690.646C1359.77 690.646 1359.12 690.646 1358.5 690.646C1357.88 690.646 1357.23 690.688 1356.56 690.771L1357.19 724.146C1359.81 724.104 1362.42 723.896 1365 723.521C1367.58 723.104 1370.04 722.542 1372.38 721.833C1374.71 721.125 1376.88 720.271 1378.88 719.271C1380.92 718.271 1382.67 717.146 1384.12 715.896C1385.58 714.604 1386.73 713.188 1387.56 711.646C1388.4 710.104 1388.81 708.438 1388.81 706.646Z" fill="#DC2626"/>
</g>
<defs>
<clipPath id="clip0_7_9">
<rect width="1782" height="1138" fill="white"/>
</clipPath>
</defs>
</svg>
