<svg width="1754" height="1120" viewBox="0 0 1754 1120" fill="none" xmlns="http://www.w3.org/2000/svg">
<g clip-path="url(#clip0_7_9)">
<rect width="1754" height="1120" fill="black"/>
<path d="M816.849 294.107V207.756H1194.37V294.107H816.849Z" fill="#DC2626" stroke="black"/>
<path d="M816.849 88.916V2.56488H1194.37V88.916H816.849Z" fill="#DC2626" stroke="black"/>
<path d="M816.849 548.885H722L722 0H816.849L816.849 548.885Z" fill="#DC2626" stroke="black"/>
<path d="M387.625 766.271C381.083 766.271 374.438 765.771 367.688 764.771L384.688 756.958L390.438 692.396L371.125 683.708C375.167 682.792 379.271 682.083 383.438 681.583C387.604 681.042 391.438 680.646 394.938 680.396C398.979 680.104 402.917 679.938 406.75 679.896C409.583 679.896 412.5 680.229 415.5 680.896C418.542 681.563 421.5 682.625 424.375 684.083C427.25 685.5 429.958 687.333 432.5 689.583C435.042 691.833 437.25 694.521 439.125 697.646C441.042 700.771 442.562 704.375 443.688 708.458C444.812 712.5 445.375 717.063 445.375 722.146C445.375 727.771 444.562 732.771 442.938 737.146C441.312 741.521 439.083 745.333 436.25 748.583C433.458 751.833 430.188 754.604 426.438 756.896C422.688 759.146 418.667 760.958 414.375 762.333C410.083 763.708 405.646 764.708 401.062 765.333C396.521 765.958 392.042 766.271 387.625 766.271ZM430.812 719.708C430.812 717.583 430.646 715.313 430.312 712.896C430.021 710.479 429.5 708.083 428.75 705.708C428 703.333 427 701.063 425.75 698.896C424.5 696.688 422.938 694.75 421.062 693.083C419.229 691.417 417.042 690.083 414.5 689.083C411.958 688.083 409.021 687.583 405.688 687.583C403.938 687.583 402.104 687.708 400.188 687.958V757.958C405.854 757.167 410.625 755.688 414.5 753.521C418.417 751.354 421.583 748.625 424 745.333C426.417 742 428.146 738.188 429.188 733.896C430.271 729.563 430.812 724.833 430.812 719.708ZM536.188 721.583C536.188 728.542 535.104 734.771 532.938 740.271C530.812 745.729 527.896 750.354 524.188 754.146C520.479 757.896 516.146 760.771 511.188 762.771C506.271 764.771 501.021 765.771 495.438 765.771C491.771 765.771 488.167 765.333 484.625 764.458C481.125 763.583 477.792 762.313 474.625 760.646C471.5 758.979 468.604 756.958 465.938 754.583C463.271 752.167 460.979 749.417 459.062 746.333C457.146 743.208 455.646 739.792 454.562 736.083C453.479 732.333 452.938 728.313 452.938 724.021C452.938 717.354 454.021 711.208 456.188 705.583C458.396 699.917 461.438 695.021 465.312 690.896C469.229 686.771 473.833 683.542 479.125 681.208C484.458 678.875 490.25 677.708 496.5 677.708C501.75 677.708 506.771 678.688 511.562 680.646C516.354 682.563 520.562 685.396 524.188 689.146C527.854 692.896 530.771 697.5 532.938 702.958C535.104 708.375 536.188 714.583 536.188 721.583ZM519.375 722.771C519.375 717.604 518.5 713.083 516.75 709.208C515 705.292 512.729 702.021 509.938 699.396C507.146 696.771 503.979 694.813 500.438 693.521C496.896 692.188 493.354 691.521 489.812 691.521C485.729 691.521 481.938 692.271 478.438 693.771C474.938 695.271 471.896 697.438 469.312 700.271C466.729 703.063 464.688 706.479 463.188 710.521C461.729 714.521 461 719.021 461 724.021C461 728.771 461.729 733 463.188 736.708C464.646 740.417 466.646 743.563 469.188 746.146C471.729 748.688 474.688 750.646 478.062 752.021C481.479 753.354 485.104 754.021 488.938 754.021C492.812 754.021 496.562 753.354 500.188 752.021C503.854 750.646 507.104 748.646 509.938 746.021C512.812 743.354 515.104 740.083 516.812 736.208C518.521 732.292 519.375 727.813 519.375 722.771ZM636.375 682.208L618.625 687.333L609.5 767.021L569.062 704.708L562.688 753.083L580.062 762.333L539 765.396L555.375 753.083L556.562 690.521L537.875 683.958L578.688 677.208L603 740.021L610.438 688.958L596.75 676.021L636.375 682.208ZM646.625 766.271C640.083 766.271 633.438 765.771 626.688 764.771L643.688 756.958L649.438 692.396L630.125 683.708C634.167 682.792 638.271 682.083 642.438 681.583C646.604 681.042 650.438 680.646 653.938 680.396C657.979 680.104 661.917 679.938 665.75 679.896C668.583 679.896 671.5 680.229 674.5 680.896C677.542 681.563 680.5 682.625 683.375 684.083C686.25 685.5 688.958 687.333 691.5 689.583C694.042 691.833 696.25 694.521 698.125 697.646C700.042 700.771 701.562 704.375 702.688 708.458C703.812 712.5 704.375 717.063 704.375 722.146C704.375 727.771 703.562 732.771 701.938 737.146C700.312 741.521 698.083 745.333 695.25 748.583C692.458 751.833 689.188 754.604 685.438 756.896C681.688 759.146 677.667 760.958 673.375 762.333C669.083 763.708 664.646 764.708 660.062 765.333C655.521 765.958 651.042 766.271 646.625 766.271ZM689.812 719.708C689.812 717.583 689.646 715.313 689.312 712.896C689.021 710.479 688.5 708.083 687.75 705.708C687 703.333 686 701.063 684.75 698.896C683.5 696.688 681.938 694.75 680.062 693.083C678.229 691.417 676.042 690.083 673.5 689.083C670.958 688.083 668.021 687.583 664.688 687.583C662.938 687.583 661.104 687.708 659.188 687.958V757.958C664.854 757.167 669.625 755.688 673.5 753.521C677.417 751.354 680.583 748.625 683 745.333C685.417 742 687.146 738.188 688.188 733.896C689.271 729.563 689.812 724.833 689.812 719.708ZM776.125 763.458L705.688 766.271L721.312 750.271L725.688 692.708L706.875 683.458L773.812 678.708L774.938 708.021L763.312 687.208L734.75 691.771L735.688 721.333L742.188 720.458L755.125 703.333L756 742.708L744.75 726.583L735.812 727.896L736.562 753.708L764.562 756.271L775.062 730.083L776.125 763.458ZM866.625 687.583L851.75 692.958L833.188 755.896L843.812 763.208L802.75 766.646L813.875 753.708L789.688 693.208L778.062 687.583L815.938 677.583L806.812 686.396L822.562 752.458L842.938 692.708L833.312 678.708L866.625 687.583ZM931.5 763.458L861.062 766.271L876.688 750.271L881.062 692.708L862.25 683.458L929.188 678.708L930.312 708.021L918.688 687.208L890.125 691.771L891.062 721.333L897.562 720.458L910.5 703.333L911.375 742.708L900.125 726.583L891.188 727.896L891.938 753.708L919.938 756.271L930.438 730.083L931.5 763.458ZM1006.88 762.958L935.062 765.771L950.938 751.958L954.688 691.521L937.5 682.583L979.125 679.896L965.938 688.833L966.688 752.208L995.625 755.771L1006.88 734.646V762.958ZM1096.56 721.583C1096.56 728.542 1095.48 734.771 1093.31 740.271C1091.19 745.729 1088.27 750.354 1084.56 754.146C1080.85 757.896 1076.52 760.771 1071.56 762.771C1066.65 764.771 1061.4 765.771 1055.81 765.771C1052.15 765.771 1048.54 765.333 1045 764.458C1041.5 763.583 1038.17 762.313 1035 760.646C1031.88 758.979 1028.98 756.958 1026.31 754.583C1023.65 752.167 1021.35 749.417 1019.44 746.333C1017.52 743.208 1016.02 739.792 1014.94 736.083C1013.85 732.333 1013.31 728.313 1013.31 724.021C1013.31 717.354 1014.4 711.208 1016.56 705.583C1018.77 699.917 1021.81 695.021 1025.69 690.896C1029.6 686.771 1034.21 683.542 1039.5 681.208C1044.83 678.875 1050.62 677.708 1056.88 677.708C1062.12 677.708 1067.15 678.688 1071.94 680.646C1076.73 682.563 1080.94 685.396 1084.56 689.146C1088.23 692.896 1091.15 697.5 1093.31 702.958C1095.48 708.375 1096.56 714.583 1096.56 721.583ZM1079.75 722.771C1079.75 717.604 1078.88 713.083 1077.12 709.208C1075.38 705.292 1073.1 702.021 1070.31 699.396C1067.52 696.771 1064.35 694.813 1060.81 693.521C1057.27 692.188 1053.73 691.521 1050.19 691.521C1046.1 691.521 1042.31 692.271 1038.81 693.771C1035.31 695.271 1032.27 697.438 1029.69 700.271C1027.1 703.063 1025.06 706.479 1023.56 710.521C1022.1 714.521 1021.38 719.021 1021.38 724.021C1021.38 728.771 1022.1 733 1023.56 736.708C1025.02 740.417 1027.02 743.563 1029.56 746.146C1032.1 748.688 1035.06 750.646 1038.44 752.021C1041.85 753.354 1045.48 754.021 1049.31 754.021C1053.19 754.021 1056.94 753.354 1060.56 752.021C1064.23 750.646 1067.48 748.646 1070.31 746.021C1073.19 743.354 1075.48 740.083 1077.19 736.208C1078.9 732.292 1079.75 727.813 1079.75 722.771ZM1128.31 739.021V757.083L1144.06 764.896H1097.56L1113.06 755.646L1117.44 691.396L1098.75 680.021C1100.92 679.688 1103.12 679.417 1105.38 679.208C1107.67 679 1109.92 678.854 1112.12 678.771C1114.38 678.646 1116.54 678.563 1118.62 678.521C1120.75 678.479 1122.73 678.458 1124.56 678.458C1128.73 678.458 1132.88 678.604 1137 678.896C1141.12 679.188 1145.06 679.75 1148.81 680.583C1152.6 681.375 1156.1 682.479 1159.31 683.896C1162.56 685.313 1165.38 687.146 1167.75 689.396C1170.12 691.604 1171.98 694.292 1173.31 697.458C1174.69 700.625 1175.38 704.333 1175.38 708.583C1175.38 712.458 1174.75 715.896 1173.5 718.896C1172.29 721.896 1170.62 724.542 1168.5 726.833C1166.42 729.083 1163.96 730.979 1161.12 732.521C1158.29 734.063 1155.29 735.333 1152.12 736.333C1148.96 737.292 1145.71 737.979 1142.38 738.396C1139.04 738.813 1135.79 739.021 1132.62 739.021H1128.31ZM1128.31 686.771V732.771C1133.19 732.771 1137.31 732.292 1140.69 731.333C1144.06 730.375 1146.88 729.167 1149.12 727.708C1151.38 726.208 1153.12 724.563 1154.38 722.771C1155.67 720.938 1156.62 719.188 1157.25 717.521C1157.88 715.813 1158.25 714.292 1158.38 712.958C1158.54 711.583 1158.62 710.583 1158.62 709.958C1158.62 709.125 1158.54 707.979 1158.38 706.521C1158.25 705.021 1157.9 703.417 1157.31 701.708C1156.73 700 1155.85 698.271 1154.69 696.521C1153.52 694.729 1151.9 693.125 1149.81 691.708C1147.73 690.25 1145.12 689.063 1142 688.146C1138.92 687.229 1135.17 686.771 1130.75 686.771H1128.31ZM1244.75 763.458L1174.31 766.271L1189.94 750.271L1194.31 692.708L1175.5 683.458L1242.44 678.708L1243.56 708.021L1231.94 687.208L1203.38 691.771L1204.31 721.333L1210.81 720.458L1223.75 703.333L1224.62 742.708L1213.38 726.583L1204.44 727.896L1205.19 753.708L1233.19 756.271L1243.69 730.083L1244.75 763.458ZM1330.88 740.958C1329.75 746.667 1328.31 751.375 1326.56 755.083C1324.81 758.75 1323.04 761.646 1321.25 763.771C1319.46 765.896 1317.77 767.375 1316.19 768.208C1314.65 769.042 1313.48 769.458 1312.69 769.458C1311.44 769.458 1309.83 768.917 1307.88 767.833C1305.92 766.75 1303.75 765.354 1301.38 763.646C1299.04 761.938 1296.6 760.021 1294.06 757.896C1291.56 755.729 1289.15 753.583 1286.81 751.458C1284.48 749.333 1282.33 747.333 1280.38 745.458C1278.42 743.583 1276.83 742.042 1275.62 740.833L1276.12 756.271L1289.31 763.583L1249.62 766.396L1262.94 754.146L1265.25 691.271L1249 683.458C1257.12 683 1264.02 682.667 1269.69 682.458C1275.35 682.208 1280.04 682.042 1283.75 681.958C1287.46 681.875 1290.31 681.833 1292.31 681.833C1294.31 681.833 1295.73 681.833 1296.56 681.833C1298.35 681.833 1300.29 682 1302.38 682.333C1304.5 682.625 1306.6 683.146 1308.69 683.896C1310.77 684.604 1312.79 685.521 1314.75 686.646C1316.71 687.771 1318.44 689.146 1319.94 690.771C1321.44 692.396 1322.62 694.292 1323.5 696.458C1324.42 698.583 1324.88 701 1324.88 703.708C1324.88 704.333 1324.79 705.208 1324.62 706.333C1324.5 707.417 1324.21 708.688 1323.75 710.146C1323.29 711.563 1322.6 713.083 1321.69 714.708C1320.77 716.292 1319.52 717.896 1317.94 719.521C1316.4 721.104 1314.48 722.646 1312.19 724.146C1309.9 725.646 1307.12 726.979 1303.88 728.146C1300.67 729.313 1296.92 730.271 1292.62 731.021C1288.38 731.729 1283.5 732.125 1278 732.208C1280.71 734.25 1283.65 736.438 1286.81 738.771C1289.98 741.063 1293.19 743.188 1296.44 745.146C1299.69 747.063 1302.88 748.667 1306 749.958C1309.12 751.208 1312.04 751.833 1314.75 751.833C1316.04 751.833 1317.42 751.688 1318.88 751.396C1320.38 751.104 1321.83 750.563 1323.25 749.771C1324.71 748.938 1326.08 747.833 1327.38 746.458C1328.71 745.042 1329.88 743.208 1330.88 740.958ZM1306.81 706.646C1306.81 705.354 1306.71 704.063 1306.5 702.771C1306.29 701.479 1305.85 700.25 1305.19 699.083C1304.52 697.917 1303.56 696.813 1302.31 695.771C1301.06 694.729 1299.38 693.833 1297.25 693.083C1295.17 692.333 1292.58 691.75 1289.5 691.333C1286.42 690.875 1282.73 690.646 1278.44 690.646C1277.77 690.646 1277.12 690.646 1276.5 690.646C1275.88 690.646 1275.23 690.688 1274.56 690.771L1275.19 724.146C1277.81 724.104 1280.42 723.896 1283 723.521C1285.58 723.104 1288.04 722.542 1290.38 721.833C1292.71 721.125 1294.88 720.271 1296.88 719.271C1298.92 718.271 1300.67 717.146 1302.12 715.896C1303.58 714.604 1304.73 713.188 1305.56 711.646C1306.4 710.104 1306.81 708.438 1306.81 706.646Z" fill="#DC2626"/>
</g>
<defs>
<clipPath id="clip0_7_9">
<rect width="1754" height="1120" fill="white"/>
</clipPath>
</defs>
</svg>
